<svg width="292" height="96" viewBox="0 0 292 96" fill="none" xmlns="http://www.w3.org/2000/svg">
<circle cx="48.5" cy="48" r="32" fill="#34374C"/>
<circle cx="48.5" cy="48" r="20" fill="#00D4AA"/>
<path d="M113.818 47.7727C113.818 49.6534 113.466 51.2642 112.761 52.6051C112.063 53.9403 111.108 54.9631 109.898 55.6733C108.693 56.3835 107.327 56.7386 105.798 56.7386C104.27 56.7386 102.901 56.3835 101.69 55.6733C100.486 54.9574 99.5313 53.9318 98.8267 52.5966C98.1278 51.2557 97.7784 49.6477 97.7784 47.7727C97.7784 45.892 98.1278 44.2841 98.8267 42.9489C99.5313 41.608 100.486 40.5824 101.69 39.8722C102.901 39.1619 104.27 38.8068 105.798 38.8068C107.327 38.8068 108.693 39.1619 109.898 39.8722C111.108 40.5824 112.063 41.608 112.761 42.9489C113.466 44.2841 113.818 45.892 113.818 47.7727ZM110.639 47.7727C110.639 46.4489 110.432 45.3324 110.017 44.4233C109.608 43.5085 109.04 42.8182 108.312 42.3523C107.585 41.8807 106.747 41.6449 105.798 41.6449C104.849 41.6449 104.011 41.8807 103.284 42.3523C102.557 42.8182 101.986 43.5085 101.571 44.4233C101.162 45.3324 100.957 46.4489 100.957 47.7727C100.957 49.0966 101.162 50.2159 101.571 51.1307C101.986 52.0398 102.557 52.7301 103.284 53.2017C104.011 53.6676 104.849 53.9006 105.798 53.9006C106.747 53.9006 107.585 53.6676 108.312 53.2017C109.04 52.7301 109.608 52.0398 110.017 51.1307C110.432 50.2159 110.639 49.0966 110.639 47.7727ZM116.671 61.4091V43.4091H119.705V45.5739H119.884C120.043 45.2557 120.268 44.9176 120.558 44.5597C120.847 44.196 121.239 43.8864 121.734 43.6307C122.228 43.3693 122.859 43.2386 123.626 43.2386C124.637 43.2386 125.549 43.4972 126.362 44.0142C127.18 44.5256 127.827 45.2841 128.305 46.2898C128.788 47.2898 129.029 48.517 129.029 49.9716C129.029 51.4091 128.793 52.6307 128.322 53.6364C127.85 54.642 127.208 55.4091 126.396 55.9375C125.583 56.4659 124.663 56.7301 123.634 56.7301C122.884 56.7301 122.262 56.6051 121.768 56.3551C121.273 56.1051 120.876 55.804 120.575 55.4517C120.279 55.0937 120.049 54.7557 119.884 54.4375H119.756V61.4091H116.671ZM119.697 49.9545C119.697 50.8011 119.816 51.5426 120.055 52.179C120.299 52.8153 120.648 53.3125 121.103 53.6705C121.563 54.0227 122.12 54.1989 122.773 54.1989C123.455 54.1989 124.026 54.017 124.487 53.6534C124.947 53.2841 125.293 52.7812 125.526 52.1449C125.765 51.5028 125.884 50.7727 125.884 49.9545C125.884 49.142 125.768 48.4205 125.535 47.7898C125.302 47.1591 124.955 46.6648 124.495 46.3068C124.035 45.9489 123.461 45.7699 122.773 45.7699C122.114 45.7699 121.555 45.9432 121.094 46.2898C120.634 46.6364 120.285 47.1222 120.046 47.7472C119.813 48.3722 119.697 49.108 119.697 49.9545ZM137.467 56.7557C136.154 56.7557 135.021 56.483 134.066 55.9375C133.117 55.3864 132.387 54.608 131.876 53.6023C131.364 52.5909 131.109 51.4006 131.109 50.0312C131.109 48.6847 131.364 47.5028 131.876 46.4858C132.393 45.4631 133.114 44.6676 134.04 44.0994C134.967 43.5256 136.055 43.2386 137.305 43.2386C138.112 43.2386 138.873 43.3693 139.589 43.6307C140.31 43.8864 140.947 44.2841 141.498 44.8239C142.055 45.3636 142.492 46.0511 142.81 46.8864C143.129 47.7159 143.288 48.7045 143.288 49.8523V50.7983H132.558V48.7188H140.33C140.325 48.1278 140.197 47.6023 139.947 47.142C139.697 46.6761 139.347 46.3097 138.898 46.0426C138.455 45.7756 137.938 45.642 137.347 45.642C136.717 45.642 136.163 45.7955 135.685 46.1023C135.208 46.4034 134.836 46.8011 134.569 47.2955C134.308 47.7841 134.174 48.321 134.168 48.9062V50.7216C134.168 51.483 134.308 52.1364 134.586 52.6818C134.864 53.2216 135.254 53.6364 135.754 53.9261C136.254 54.2102 136.839 54.3523 137.509 54.3523C137.958 54.3523 138.364 54.2898 138.728 54.1648C139.092 54.0341 139.407 53.8438 139.674 53.5938C139.941 53.3438 140.143 53.0341 140.279 52.6648L143.16 52.9886C142.978 53.75 142.631 54.4148 142.12 54.983C141.614 55.5455 140.967 55.983 140.177 56.2955C139.387 56.6023 138.484 56.7557 137.467 56.7557ZM148.983 48.8295V56.5H145.898V43.4091H148.847V45.6335H149C149.301 44.9006 149.781 44.3182 150.44 43.8864C151.105 43.4545 151.926 43.2386 152.903 43.2386C153.807 43.2386 154.594 43.4318 155.264 43.8182C155.94 44.2045 156.463 44.7642 156.832 45.4972C157.207 46.2301 157.392 47.1193 157.386 48.1648V56.5H154.301V48.642C154.301 47.767 154.074 47.0824 153.619 46.5881C153.17 46.0937 152.548 45.8466 151.753 45.8466C151.213 45.8466 150.733 45.9659 150.312 46.2045C149.898 46.4375 149.571 46.7756 149.332 47.2188C149.099 47.6619 148.983 48.1989 148.983 48.8295ZM175.599 44.9347H172.412C172.321 44.4119 172.153 43.9489 171.909 43.5455C171.665 43.1364 171.361 42.7898 170.997 42.5057C170.634 42.2216 170.219 42.0085 169.753 41.8665C169.293 41.7188 168.795 41.6449 168.261 41.6449C167.313 41.6449 166.472 41.8835 165.739 42.3608C165.006 42.8324 164.432 43.5256 164.017 44.4403C163.602 45.3494 163.395 46.4602 163.395 47.7727C163.395 49.108 163.602 50.233 164.017 51.1477C164.438 52.0568 165.011 52.7443 165.739 53.2102C166.472 53.6705 167.31 53.9006 168.253 53.9006C168.776 53.9006 169.264 53.8324 169.719 53.696C170.179 53.554 170.591 53.3466 170.955 53.0739C171.324 52.8011 171.634 52.4659 171.884 52.0682C172.139 51.6705 172.315 51.2159 172.412 50.7045L175.599 50.7216C175.48 51.5511 175.222 52.3295 174.824 53.0568C174.432 53.7841 173.918 54.4261 173.281 54.983C172.645 55.5341 171.901 55.9659 171.048 56.2784C170.196 56.5852 169.25 56.7386 168.21 56.7386C166.676 56.7386 165.307 56.3835 164.102 55.6733C162.898 54.9631 161.949 53.9375 161.256 52.5966C160.563 51.2557 160.216 49.6477 160.216 47.7727C160.216 45.892 160.565 44.2841 161.264 42.9489C161.963 41.608 162.915 40.5824 164.119 39.8722C165.324 39.1619 166.688 38.8068 168.21 38.8068C169.182 38.8068 170.085 38.9432 170.92 39.2159C171.756 39.4886 172.5 39.8892 173.153 40.4176C173.807 40.9403 174.344 41.5824 174.764 42.3438C175.19 43.0994 175.469 43.9631 175.599 44.9347ZM181.444 39.0455V56.5H178.359V39.0455H181.444ZM190.327 56.7557C189.048 56.7557 187.94 56.4744 187.003 55.9119C186.065 55.3494 185.338 54.5625 184.821 53.5511C184.31 52.5398 184.054 51.358 184.054 50.0057C184.054 48.6534 184.31 47.4687 184.821 46.4517C185.338 45.4347 186.065 44.6449 187.003 44.0824C187.94 43.5199 189.048 43.2386 190.327 43.2386C191.605 43.2386 192.713 43.5199 193.651 44.0824C194.588 44.6449 195.313 45.4347 195.824 46.4517C196.341 47.4687 196.599 48.6534 196.599 50.0057C196.599 51.358 196.341 52.5398 195.824 53.5511C195.313 54.5625 194.588 55.3494 193.651 55.9119C192.713 56.4744 191.605 56.7557 190.327 56.7557ZM190.344 54.2841C191.037 54.2841 191.616 54.0937 192.082 53.7131C192.548 53.3267 192.895 52.8097 193.122 52.1619C193.355 51.5142 193.472 50.7926 193.472 49.9972C193.472 49.196 193.355 48.4716 193.122 47.8239C192.895 47.1705 192.548 46.6506 192.082 46.2642C191.616 45.8778 191.037 45.6847 190.344 45.6847C189.634 45.6847 189.043 45.8778 188.571 46.2642C188.105 46.6506 187.756 47.1705 187.523 47.8239C187.295 48.4716 187.182 49.196 187.182 49.9972C187.182 50.7926 187.295 51.5142 187.523 52.1619C187.756 52.8097 188.105 53.3267 188.571 53.7131C189.043 54.0937 189.634 54.2841 190.344 54.2841ZM207.562 50.9943V43.4091H210.647V56.5H207.656V54.1733H207.519C207.224 54.9062 206.738 55.5057 206.062 55.9716C205.391 56.4375 204.565 56.6705 203.582 56.6705C202.724 56.6705 201.965 56.4801 201.306 56.0994C200.653 55.7131 200.141 55.1534 199.772 54.4205C199.403 53.6818 199.218 52.7898 199.218 51.7443V43.4091H202.303V51.267C202.303 52.0966 202.531 52.7557 202.985 53.2443C203.44 53.733 204.036 53.9773 204.775 53.9773C205.229 53.9773 205.67 53.8665 206.096 53.6449C206.522 53.4233 206.871 53.0938 207.144 52.6562C207.423 52.2131 207.562 51.6591 207.562 50.9943ZM218.678 56.7301C217.649 56.7301 216.729 56.4659 215.916 55.9375C215.104 55.4091 214.462 54.642 213.99 53.6364C213.518 52.6307 213.283 51.4091 213.283 49.9716C213.283 48.517 213.521 47.2898 213.999 46.2898C214.482 45.2841 215.132 44.5256 215.95 44.0142C216.768 43.4972 217.68 43.2386 218.686 43.2386C219.453 43.2386 220.084 43.3693 220.578 43.6307C221.072 43.8864 221.464 44.196 221.754 44.5597C222.044 44.9176 222.268 45.2557 222.428 45.5739H222.555V39.0455H225.649V56.5H222.615V54.4375H222.428C222.268 54.7557 222.038 55.0937 221.737 55.4517C221.436 55.804 221.038 56.1051 220.544 56.3551C220.05 56.6051 219.428 56.7301 218.678 56.7301ZM219.538 54.1989C220.192 54.1989 220.749 54.0227 221.209 53.6705C221.669 53.3125 222.018 52.8153 222.257 52.179C222.496 51.5426 222.615 50.8011 222.615 49.9545C222.615 49.108 222.496 48.3722 222.257 47.7472C222.024 47.1222 221.678 46.6364 221.217 46.2898C220.763 45.9432 220.203 45.7699 219.538 45.7699C218.851 45.7699 218.277 45.9489 217.817 46.3068C217.357 46.6648 217.01 47.1591 216.777 47.7898C216.544 48.4205 216.428 49.142 216.428 49.9545C216.428 50.7727 216.544 51.5028 216.777 52.1449C217.016 52.7812 217.365 53.2841 217.825 53.6534C218.291 54.017 218.862 54.1989 219.538 54.1989ZM229.073 56.5V39.0455H232.235V46.4347H240.323V39.0455H243.494V56.5H240.323V49.0852H232.235V56.5H229.073ZM255.14 50.9943V43.4091H258.225V56.5H255.234V54.1733H255.097C254.802 54.9062 254.316 55.5057 253.64 55.9716C252.969 56.4375 252.143 56.6705 251.16 56.6705C250.302 56.6705 249.543 56.4801 248.884 56.0994C248.231 55.7131 247.719 55.1534 247.35 54.4205C246.981 53.6818 246.796 52.7898 246.796 51.7443V43.4091H249.881V51.267C249.881 52.0966 250.109 52.7557 250.563 53.2443C251.018 53.733 251.614 53.9773 252.353 53.9773C252.808 53.9773 253.248 53.8665 253.674 53.6449C254.1 53.4233 254.45 53.0938 254.722 52.6562C255.001 52.2131 255.14 51.6591 255.14 50.9943ZM261.534 56.5V39.0455H264.619V45.5739H264.747C264.906 45.2557 265.131 44.9176 265.42 44.5597C265.71 44.196 266.102 43.8864 266.597 43.6307C267.091 43.3693 267.722 43.2386 268.489 43.2386C269.5 43.2386 270.412 43.4972 271.224 44.0142C272.043 44.5256 272.69 45.2841 273.168 46.2898C273.651 47.2898 273.892 48.517 273.892 49.9716C273.892 51.4091 273.656 52.6307 273.185 53.6364C272.713 54.642 272.071 55.4091 271.259 55.9375C270.446 56.4659 269.526 56.7301 268.497 56.7301C267.747 56.7301 267.125 56.6051 266.631 56.3551C266.136 56.1051 265.739 55.804 265.438 55.4517C265.142 55.0937 264.912 54.7557 264.747 54.4375H264.568V56.5H261.534ZM264.56 49.9545C264.56 50.8011 264.679 51.5426 264.918 52.179C265.162 52.8153 265.511 53.3125 265.966 53.6705C266.426 54.0227 266.983 54.1989 267.636 54.1989C268.318 54.1989 268.889 54.017 269.349 53.6534C269.81 53.2841 270.156 52.7812 270.389 52.1449C270.628 51.5028 270.747 50.7727 270.747 49.9545C270.747 49.142 270.631 48.4205 270.398 47.7898C270.165 47.1591 269.818 46.6648 269.358 46.3068C268.898 45.9489 268.324 45.7699 267.636 45.7699C266.977 45.7699 266.418 45.9432 265.957 46.2898C265.497 46.6364 265.148 47.1222 264.909 47.7472C264.676 48.3722 264.56 49.108 264.56 49.9545Z" fill="#34374C"/>
</svg>
